<?xml version="1.0" standalone="no"?>
<!DOCTYPE svg PUBLIC "-//W3C//DTD SVG 20010904//EN"
 "http://www.w3.org/TR/2001/REC-SVG-20010904/DTD/svg10.dtd">
<svg version="1.0" xmlns="http://www.w3.org/2000/svg"
 width="880.000000pt" height="880.000000pt" viewBox="0 0 880.000000 880.000000"
 preserveAspectRatio="xMidYMid meet">
<metadata>
Created by potrace 1.11, written by Peter Selinger 2001-2013
</metadata>
<g transform="translate(0.000000,880.000000) scale(0.100000,-0.100000)"
fill="#000000" stroke="none">
<path d="M5433 7723 c-13 -2 -23 -9 -23 -14 0 -6 -7 -6 -19 1 -14 7 -20 7 -23
-2 -3 -8 -9 -8 -22 -1 -13 7 -26 7 -42 -2 -14 -7 -35 -11 -49 -9 -14 1 -25 -3
-25 -9 0 -5 -3 -7 -7 -4 -3 4 -13 1 -21 -6 -9 -6 -13 -7 -9 -1 7 12 -115 -26
-124 -39 -3 -4 -16 -9 -27 -10 -12 -1 -22 -5 -22 -10 0 -4 -4 -6 -9 -3 -5 3
-19 -3 -32 -13 -13 -10 -33 -21 -44 -23 -11 -2 -19 -10 -17 -17 1 -7 -2 -10
-7 -6 -14 8 -51 -26 -44 -39 4 -6 -1 -5 -11 3 -15 13 -18 12 -23 -7 -3 -12
-10 -19 -15 -16 -5 3 -23 -9 -39 -27 -16 -18 -29 -29 -29 -25 0 4 -10 -2 -22
-14 -12 -11 -25 -20 -29 -20 -4 0 -10 -8 -13 -17 -3 -10 -19 -27 -36 -38 -16
-11 -29 -24 -27 -30 2 -5 -7 -19 -20 -31 -27 -25 -73 -91 -73 -104 0 -6 -3
-10 -8 -10 -4 0 -13 -9 -20 -21 -11 -17 -11 -20 0 -14 7 3 5 0 -4 -8 -10 -8
-18 -20 -18 -26 0 -7 -5 -9 -12 -5 -8 5 -9 2 -5 -9 4 -10 2 -17 -4 -17 -6 0
-9 -9 -6 -19 3 -12 -1 -22 -11 -26 -8 -3 -12 -8 -9 -11 3 -3 -3 -20 -13 -36
-10 -17 -16 -37 -13 -44 3 -8 0 -14 -6 -14 -7 0 -11 -6 -10 -12 3 -23 -13 -98
-22 -98 -4 0 -6 -13 -4 -30 2 -18 -2 -36 -11 -45 -9 -8 -12 -15 -7 -15 4 0 8
-11 8 -25 0 -14 -4 -25 -8 -25 -5 0 -5 -5 -1 -12 10 -16 11 -68 1 -68 -5 0 -5
-5 -1 -12 4 -6 6 -52 6 -101 -1 -52 2 -95 9 -103 6 -7 8 -26 6 -43 -4 -20 0
-31 10 -35 12 -5 13 -9 3 -21 -9 -10 -9 -15 -1 -15 6 0 11 -9 11 -19 0 -11 5
-23 11 -26 6 -4 8 -13 5 -21 -3 -7 1 -20 9 -28 8 -7 11 -16 8 -20 -3 -3 0 -12
7 -21 7 -9 10 -18 7 -21 -3 -4 3 -15 13 -27 11 -11 17 -24 14 -29 -3 -4 0 -8
6 -8 6 0 8 -4 5 -10 -3 -5 -1 -10 4 -10 6 0 11 -9 11 -20 0 -11 5 -20 10 -20
6 0 10 -6 10 -14 0 -7 7 -19 15 -26 9 -7 13 -15 10 -18 -2 -3 7 -16 21 -29 14
-12 22 -23 18 -23 -4 0 7 -14 25 -30 17 -17 31 -34 31 -39 0 -5 7 -12 16 -15
9 -4 14 -9 11 -12 -8 -8 18 -34 32 -34 6 0 11 -4 11 -10 0 -5 5 -10 11 -10 6
0 17 -7 25 -15 9 -8 13 -15 10 -15 -3 0 5 -10 17 -23 12 -13 25 -22 29 -20 4
2 19 -8 34 -22 14 -13 30 -22 34 -20 4 3 11 -2 14 -11 3 -8 10 -13 15 -10 5 3
12 -1 15 -10 3 -8 10 -12 16 -9 5 3 10 1 10 -5 0 -6 5 -8 10 -5 6 3 10 2 10
-3 0 -9 37 -25 53 -23 4 1 7 -4 7 -10 0 -5 5 -7 10 -4 6 3 10 1 10 -4 0 -6 9
-11 20 -11 11 0 20 -4 20 -8 0 -4 12 -9 27 -10 15 -1 32 -7 37 -12 6 -6 20
-10 33 -10 13 0 23 -4 23 -8 0 -5 7 -9 15 -9 8 0 15 5 15 11 0 5 7 1 15 -10 8
-10 15 -15 15 -11 0 4 9 3 20 -3 11 -6 20 -7 20 -2 0 4 9 8 19 8 11 0 17 -4
14 -9 -3 -5 10 -8 30 -5 20 2 34 1 32 -2 -5 -8 80 -4 93 4 6 3 13 0 15 -6 4
-10 8 -9 16 2 10 13 11 13 11 0 0 -12 2 -12 9 -1 6 9 11 10 15 2 4 -6 12 -11
17 -11 6 0 7 6 3 13 -5 8 -2 8 9 -2 11 -8 17 -9 17 -2 0 7 8 8 23 2 23 -9 50
-4 43 7 -2 4 11 7 30 7 19 0 34 -4 34 -10 0 -7 3 -7 8 0 10 14 55 39 47 26 -3
-6 -2 -11 4 -11 5 0 13 5 16 11 4 6 13 8 20 5 8 -3 15 0 17 5 2 5 13 11 26 12
12 0 22 5 22 9 0 4 3 7 8 7 22 -4 42 2 37 11 -3 5 0 7 8 4 8 -3 18 0 22 5 3 6
11 9 16 6 5 -4 9 -1 9 5 0 6 5 8 10 5 6 -3 10 -1 10 4 0 6 6 11 14 11 8 0 21
7 30 15 8 9 17 15 18 15 8 -3 44 15 50 24 4 6 12 12 18 12 5 1 15 2 21 3 5 0
8 5 4 10 -3 5 4 12 15 16 11 3 20 11 20 16 0 6 5 7 10 4 6 -3 10 1 10 9 0 9 6
16 13 16 7 0 19 9 27 20 8 11 19 20 24 20 5 0 19 11 31 24 13 14 26 22 31 18
4 -4 4 -2 1 4 -4 6 9 29 28 50 19 21 35 43 35 47 0 5 5 5 10 2 9 -5 11 -1 10
20 -1 3 5 12 12 19 22 23 41 53 39 61 -2 4 3 11 11 16 13 8 14 12 17 44 0 8 7
14 14 13 6 -2 11 5 9 15 -2 9 2 17 8 17 5 0 10 9 10 19 0 11 6 26 13 33 8 7
13 21 11 31 -1 9 3 17 9 17 5 0 7 3 4 7 -4 3 -1 13 6 21 10 13 9 15 -3 8 -11
-6 -11 -4 1 6 9 7 15 21 13 31 -1 9 2 17 7 17 5 0 7 11 5 24 -3 14 2 30 10 37
12 9 12 14 3 20 -10 6 -10 11 0 23 16 19 21 76 7 76 -7 0 -8 3 -1 8 6 4 10 14
10 22 0 8 -4 18 -10 22 -6 5 -5 8 4 8 7 0 11 6 7 15 -3 8 -2 15 3 15 4 0 8 14
9 30 0 17 -4 30 -9 30 -6 0 -7 5 -4 10 3 6 0 10 -7 10 -9 0 -10 3 -2 8 14 9
13 54 -1 64 -6 5 -6 8 1 8 13 0 7 48 -8 67 -6 7 -5 14 2 18 8 5 8 11 1 19 -6
7 -7 16 -3 20 4 4 -2 14 -12 22 -11 8 -14 14 -8 14 10 0 10 5 2 21 -7 11 -9
27 -6 35 3 8 -1 14 -10 14 -8 0 -12 4 -9 10 3 5 0 24 -8 42 -23 51 -30 72 -29
81 1 4 -3 7 -9 7 -5 0 -7 5 -4 10 3 6 1 10 -6 10 -7 0 -10 3 -6 6 3 4 1 12 -6
20 -22 25 -32 40 -35 54 -2 8 -9 18 -15 22 -7 4 -8 8 -3 8 5 0 -1 8 -12 19
-12 10 -19 21 -15 25 3 3 1 6 -5 6 -7 0 -12 5 -12 11 0 6 -11 20 -25 31 -13
10 -24 23 -22 27 3 10 -120 131 -133 131 -5 0 -14 9 -20 20 -6 11 -17 20 -25
20 -9 0 -25 11 -37 25 -11 13 -25 22 -30 19 -4 -3 -8 0 -8 5 0 6 -8 11 -18 11
-9 0 -23 9 -30 20 -7 12 -17 18 -22 15 -4 -3 -14 1 -22 8 -7 8 -21 13 -30 11
-10 -1 -17 1 -17 4 3 20 -3 23 -18 11 -9 -8 -14 -9 -10 -3 3 6 -9 17 -28 26
-24 11 -36 12 -39 4 -3 -7 -5 -6 -5 2 -1 7 -5 10 -11 7 -5 -3 -10 1 -10 9 0
10 -6 13 -15 10 -8 -4 -22 -1 -30 6 -9 8 -15 8 -15 2 0 -7 -10 -5 -27 3 -16 8
-40 12 -55 11 -16 -2 -28 1 -28 6 0 6 -20 8 -45 6 -26 -2 -45 1 -45 7 0 5 -5
3 -10 -5 -7 -11 -10 -11 -10 -2 0 7 -4 10 -10 7 -5 -3 -10 -2 -10 3 0 11 -61
9 -80 -3 -9 -5 -11 -4 -6 3 4 7 4 11 -1 11 -4 -1 -18 -4 -30 -6z"/>
<path d="M3152 7038 c-6 -6 -31 -13 -55 -14 -52 -3 -98 -14 -114 -27 -9 -6
-13 -5 -13 4 0 10 -2 11 -8 2 -4 -6 -16 -13 -27 -15 -11 -1 -22 -5 -25 -8 -9
-9 -84 -44 -95 -45 -5 0 -14 -6 -18 -13 -5 -7 -13 -10 -18 -6 -5 3 -8 2 -7 -3
2 -4 0 -8 -3 -8 -4 0 -16 -8 -26 -18 -11 -9 -22 -14 -25 -11 -4 3 -9 -4 -13
-15 -3 -12 -11 -19 -16 -16 -5 4 -9 -1 -9 -10 0 -9 -4 -13 -10 -10 -5 3 -15
-5 -21 -19 -7 -14 -15 -23 -19 -21 -4 3 -16 -7 -26 -21 -11 -15 -25 -32 -32
-40 -7 -8 -11 -14 -7 -14 6 0 -5 -15 -37 -50 -9 -10 -14 -21 -11 -24 4 -3 1
-6 -5 -6 -7 0 -11 -3 -10 -7 1 -5 -8 -30 -21 -58 -42 -89 -43 -93 -37 -104 4
-6 2 -11 -4 -11 -6 0 -8 -4 -5 -10 3 -5 2 -10 -3 -10 -6 0 -8 -9 -5 -20 3 -11
1 -20 -4 -20 -5 0 -9 -21 -8 -47 0 -32 -4 -52 -15 -60 -8 -7 -10 -13 -5 -13
11 0 13 -46 2 -56 -3 -4 -1 -16 6 -28 6 -11 12 -30 12 -41 0 -11 5 -26 9 -34
6 -10 5 -12 -2 -7 -13 8 -13 -35 0 -44 4 -3 9 -23 11 -43 2 -21 10 -46 18 -56
8 -9 15 -28 17 -41 1 -13 7 -27 13 -31 6 -3 11 -9 11 -12 0 -19 12 -47 20 -47
5 0 6 -4 3 -10 -3 -5 -2 -10 4 -10 5 0 13 -9 16 -20 4 -12 16 -29 27 -40 11
-10 26 -29 33 -42 6 -13 17 -22 23 -21 7 2 11 -1 9 -7 -3 -14 74 -80 86 -73 6
3 8 2 5 -3 -3 -5 0 -15 8 -22 8 -7 14 -10 14 -7 0 3 9 1 20 -5 11 -6 20 -18
20 -26 0 -9 5 -12 12 -8 6 4 17 -1 24 -10 6 -9 21 -18 33 -19 11 -1 23 -7 25
-14 3 -7 12 -10 21 -7 8 3 15 2 15 -3 0 -10 10 -13 59 -16 16 -1 27 -5 24 -9
-2 -5 4 -9 14 -10 38 -3 49 -5 66 -13 9 -4 30 -5 47 -3 16 2 27 1 24 -3 -4 -7
39 -4 89 6 9 2 15 0 13 -4 -7 -11 94 -4 108 8 10 9 16 9 21 1 5 -8 11 -8 21 1
8 6 14 9 14 5 0 -4 13 0 29 8 16 9 31 12 35 9 3 -4 6 -1 6 6 0 7 4 10 9 6 14
-8 61 16 54 28 -3 6 -2 7 4 4 5 -3 21 0 36 8 14 7 28 11 31 7 3 -3 6 0 6 6 0
7 6 12 14 12 8 0 17 7 20 16 3 8 10 12 16 9 5 -3 10 -1 10 4 0 6 3 10 8 8 9
-3 117 105 114 116 -1 4 3 7 9 7 15 0 39 26 32 34 -4 3 1 6 10 6 15 0 19 6 16
26 0 3 8 12 18 20 10 7 14 14 10 14 -4 0 1 10 12 22 11 11 18 25 15 29 -2 4 0
10 6 14 6 4 8 11 5 16 -4 5 -2 9 4 9 10 0 27 38 23 53 -1 4 2 7 8 7 5 0 7 7 4
15 -4 8 -1 15 5 15 6 0 11 10 11 23 0 13 5 28 12 35 9 9 9 12 0 12 -10 0 -10
5 -1 22 13 25 19 237 7 245 -5 2 -5 10 -1 16 13 21 12 35 -3 41 -11 4 -12 10
-4 25 7 13 7 22 0 26 -5 3 -10 15 -10 26 0 10 -5 19 -11 19 -5 0 -7 5 -4 10 3
6 1 10 -6 10 -8 0 -8 4 1 15 10 12 9 16 -2 20 -8 3 -15 12 -15 19 0 22 -25 76
-34 76 -5 0 -9 7 -9 16 0 8 -4 12 -10 9 -5 -3 -7 0 -4 8 3 8 -2 17 -10 20 -9
4 -16 12 -16 20 0 7 -11 24 -25 37 -13 12 -23 26 -21 29 2 3 -2 12 -10 19 -8
7 -14 10 -14 7 0 -3 -6 0 -14 7 -8 7 -12 16 -10 19 2 3 -11 16 -28 29 -17 12
-27 16 -23 9 4 -8 -6 1 -23 20 -16 18 -34 31 -40 27 -5 -3 -12 3 -15 13 -3 11
-17 22 -36 26 -17 3 -35 14 -41 23 -8 14 -9 14 -10 2 0 -13 -1 -13 -10 0 -5 8
-13 15 -17 16 -4 0 -16 4 -26 9 -10 4 -21 5 -24 1 -4 -3 -13 0 -22 8 -16 14
-75 26 -146 29 -22 1 -46 8 -53 14 -10 9 -19 10 -32 3 -13 -7 -21 -7 -25 0 -5
8 -11 8 -20 0 -9 -8 -14 -8 -17 0 -2 7 -7 7 -16 -2z"/>
<path d="M4237 5770 c-9 -11 -14 -20 -12 -20 3 0 0 -10 -7 -22 -7 -13 -11 -27
-10 -31 1 -5 -1 -6 -5 -4 -5 3 -14 -1 -21 -9 -10 -11 -10 -14 0 -14 8 -1 6 -6
-6 -15 -10 -7 -15 -18 -11 -24 3 -6 -1 -11 -9 -11 -14 0 -20 -12 -17 -32 0 -5
-6 -8 -15 -8 -8 0 -12 -4 -9 -10 3 -5 1 -10 -5 -10 -6 0 -14 -8 -17 -17 -9
-24 -73 -89 -84 -85 -5 1 -9 -2 -9 -8 0 -16 -83 -97 -108 -104 -12 -4 -20 -12
-17 -17 4 -5 -5 -13 -19 -19 -14 -5 -26 -14 -26 -20 0 -6 -4 -9 -9 -5 -5 3
-16 -1 -24 -9 -8 -8 -17 -12 -21 -9 -3 4 -6 1 -6 -5 0 -7 -9 -12 -20 -12 -11
0 -20 -4 -20 -9 0 -10 -39 -27 -52 -23 -5 1 -8 -3 -8 -9 0 -5 -4 -8 -8 -5 -5
3 -19 -4 -30 -15 -13 -12 -22 -15 -22 -7 0 6 -7 3 -16 -8 -8 -10 -13 -13 -9
-6 3 6 1 12 -4 12 -6 0 -11 -4 -11 -10 0 -5 -3 -9 -7 -9 -5 1 -10 0 -13 -1 -3
-1 -12 -3 -20 -5 -8 -2 -26 -7 -40 -11 -14 -3 -37 -7 -52 -7 -16 -1 -28 -4
-28 -8 0 -4 -7 -10 -16 -13 -9 -4 -13 -2 -8 5 4 8 1 8 -13 0 -14 -7 -23 -7
-31 1 -9 9 -12 9 -12 -1 0 -11 -3 -11 -15 -1 -10 9 -15 9 -15 1 0 -6 -9 -11
-20 -11 -11 0 -20 -6 -20 -12 0 -9 -3 -9 -8 -3 -4 6 -32 10 -62 10 -30 0 -61
4 -68 9 -15 11 -53 16 -47 6 2 -3 -5 -6 -15 -6 -10 0 -16 5 -13 10 4 5 -1 7
-10 3 -10 -3 -17 -3 -17 1 0 4 -16 7 -35 7 -19 -1 -35 2 -35 7 0 5 -4 7 -9 4
-4 -3 -16 1 -27 8 -10 8 -24 12 -31 9 -7 -3 -20 0 -28 7 -8 7 -15 9 -15 5 0
-4 -7 -2 -15 5 -8 6 -18 9 -24 6 -5 -3 -12 1 -15 10 -3 9 -13 14 -21 10 -8 -3
-21 2 -30 10 -8 9 -15 12 -15 7 0 -4 -4 -3 -8 4 -5 8 -13 8 -32 -2 -16 -10
-20 -14 -9 -15 14 0 16 -16 15 -114 -1 -63 2 -112 6 -110 5 3 8 0 8 -5 0 -6
-4 -11 -8 -11 -10 0 -8 -62 3 -80 5 -7 4 -11 -1 -8 -5 4 -9 -74 -9 -187 0
-106 3 -191 8 -188 4 2 7 -1 7 -6 0 -6 -4 -11 -8 -11 -10 0 -8 -62 3 -80 5 -8
4 -11 -2 -7 -6 4 -9 -16 -8 -53 2 -37 -1 -60 -8 -60 -6 0 -7 -3 -4 -7 13 -12
-37 -31 -52 -19 -11 8 -13 8 -7 -1 4 -8 1 -13 -8 -13 -9 0 -16 -4 -16 -10 0
-5 -5 -10 -11 -10 -5 0 -8 4 -4 10 3 5 -7 3 -21 -5 -15 -8 -32 -11 -37 -8 -6
3 -7 1 -3 -5 4 -7 1 -12 -8 -12 -9 0 -16 -4 -16 -9 0 -5 -11 -8 -25 -6 -20 2
-23 0 -14 -12 9 -11 8 -12 -5 -7 -9 4 -16 1 -16 -6 0 -10 -3 -10 -15 0 -13 11
-14 10 -9 -5 5 -13 4 -16 -4 -11 -7 4 -12 2 -12 -5 0 -8 -4 -8 -15 1 -13 11
-14 10 -9 -5 6 -15 3 -17 -14 -13 -22 6 -47 -13 -35 -26 4 -4 0 -4 -10 0 -10
4 -17 1 -17 -6 0 -7 -7 -10 -16 -6 -14 5 -15 4 -5 -8 11 -13 9 -15 -8 -11 -14
3 -19 0 -15 -7 5 -7 2 -9 -9 -5 -12 4 -14 2 -10 -10 4 -11 2 -14 -5 -9 -7 4
-12 1 -12 -8 0 -9 -7 -16 -16 -16 -8 0 -13 -4 -9 -9 3 -5 1 -12 -5 -16 -5 -3
-10 -2 -10 2 0 5 -8 9 -19 9 -11 0 -17 -5 -14 -13 3 -7 10 -10 17 -6 6 3 7 2
3 -3 -8 -9 -12 -10 -38 -13 -6 0 -8 -8 -5 -17 3 -8 2 -12 -4 -9 -5 3 -18 1
-27 -4 -11 -6 -13 -11 -5 -11 7 0 10 -5 7 -10 -4 -6 -11 -8 -16 -5 -8 6 -13
-8 -10 -27 0 -4 -6 -5 -14 -2 -9 4 -15 0 -15 -10 0 -9 -7 -16 -15 -16 -18 0
-38 -36 -29 -52 4 -7 3 -8 -4 -4 -7 4 -12 1 -12 -8 0 -9 -7 -16 -16 -16 -9 0
-12 -5 -8 -12 5 -8 2 -9 -10 -5 -11 4 -15 3 -10 -4 4 -6 0 -15 -7 -20 -12 -7
-11 -9 1 -9 8 0 0 -9 -18 -20 -27 -17 -31 -24 -22 -35 12 -14 -2 -31 -18 -21
-4 2 -9 -5 -9 -17 -1 -12 -9 -27 -18 -33 -8 -6 -15 -17 -15 -25 0 -11 2 -11
11 1 9 13 10 13 6 0 -2 -8 -14 -14 -26 -13 -11 2 -21 -2 -21 -8 0 -5 4 -8 9
-4 6 3 9 -3 8 -14 0 -11 -4 -18 -8 -16 -3 3 -11 -7 -18 -21 -8 -19 -8 -24 0
-18 8 4 9 3 5 -4 -4 -7 -15 -12 -24 -12 -15 0 -15 -2 -2 -10 13 -9 13 -11 0
-20 -11 -7 -11 -10 -2 -10 10 0 10 -3 0 -14 -7 -8 -17 -11 -23 -8 -5 2 -4 -1
3 -9 14 -16 16 -33 2 -24 -6 3 -7 -1 -4 -9 4 -11 0 -16 -12 -16 -14 0 -16 -2
-6 -9 16 -10 12 -31 -8 -49 -8 -8 -9 -11 -3 -7 9 4 11 1 7 -9 -3 -9 -11 -13
-18 -9 -6 3 -3 -3 7 -14 12 -14 15 -23 7 -28 -5 -3 -8 -11 -5 -16 4 -5 1 -9
-4 -9 -6 0 -11 5 -11 12 0 6 -2 9 -5 6 -3 -3 -1 -17 4 -31 9 -22 8 -25 -7 -20
-15 6 -15 4 1 -14 14 -16 15 -23 6 -29 -8 -5 -10 -3 -4 6 5 8 4 11 -3 6 -6 -3
-9 -15 -7 -26 2 -11 -1 -22 -6 -26 -6 -4 -6 -11 2 -20 9 -11 8 -14 -5 -14 -9
0 -16 -5 -16 -11 0 -5 5 -7 10 -4 6 4 10 -5 10 -22 0 -15 1 -35 2 -43 1 -9 -2
-28 -6 -44 -4 -16 -3 -25 3 -22 5 3 7 -3 4 -14 -3 -11 -9 -17 -14 -14 -5 3 -6
-2 -3 -10 3 -9 10 -14 14 -11 5 3 12 0 16 -6 5 -8 3 -9 -6 -4 -10 6 -12 4 -7
-9 4 -9 3 -15 -2 -12 -5 3 -12 -1 -15 -10 -4 -10 -2 -13 6 -8 8 5 9 0 5 -15
-5 -19 -3 -20 11 -9 10 8 13 9 9 1 -4 -6 -2 -15 4 -19 9 -5 7 -11 -6 -21 -17
-12 -17 -13 -2 -13 9 0 17 -5 17 -11 0 -6 -7 -8 -16 -5 -14 5 -15 4 -4 -9 10
-12 10 -18 -1 -32 -12 -15 -12 -16 2 -11 13 5 16 2 12 -13 -4 -14 0 -19 13
-19 16 0 17 -2 4 -10 -9 -6 -11 -10 -3 -10 7 0 10 -7 7 -15 -4 -8 -11 -12 -18
-9 -6 3 3 -6 19 -20 21 -19 24 -24 10 -19 -17 6 -18 4 -8 -9 7 -8 10 -18 6
-21 -3 -4 -1 -7 6 -7 7 0 11 -7 8 -15 -4 -8 -1 -17 5 -21 7 -5 8 -2 3 6 -6 9
-4 11 5 5 10 -6 9 -11 -5 -22 -17 -12 -18 -13 -1 -13 9 0 14 -5 11 -10 -3 -6
1 -10 10 -10 13 0 14 -4 5 -20 -9 -17 -8 -20 7 -20 15 0 16 -2 3 -10 -10 -6
-11 -10 -2 -10 6 0 12 -6 12 -14 0 -8 7 -16 15 -20 8 -3 12 -12 9 -21 -3 -8
-1 -15 5 -15 6 0 10 -3 10 -7 -4 -25 3 -35 18 -29 17 6 17 5 1 -7 -15 -12 -15
-14 4 -26 11 -7 17 -19 14 -27 -3 -8 1 -14 10 -14 8 0 13 -4 10 -9 -3 -5 1
-11 9 -15 8 -3 15 -14 15 -24 0 -19 37 -60 55 -61 6 -1 9 -8 9 -16 -1 -8 -2
-22 -3 -30 0 -8 -8 -15 -17 -15 -12 0 -15 -6 -11 -21 4 -15 2 -18 -7 -10 -10
8 -16 4 -24 -14 -10 -22 -15 -24 -31 -15 -24 12 -34 13 -27 2 3 -5 -1 -9 -9
-9 -8 0 -15 5 -15 11 0 6 -5 4 -10 -4 -9 -13 -10 -13 -10 0 0 13 -1 13 -10 0
-8 -12 -10 -12 -10 -1 0 11 -3 11 -17 0 -11 -10 -14 -10 -9 -1 4 6 2 12 -3 12
-6 0 -11 -4 -11 -10 0 -5 -7 -7 -15 -4 -11 5 -13 2 -8 -12 4 -11 3 -15 -5 -10
-6 3 -13 -2 -17 -13 -4 -12 -12 -18 -21 -14 -8 3 -14 -1 -14 -11 0 -9 -6 -16
-13 -16 -8 0 -19 -11 -25 -25 -6 -14 -18 -25 -27 -25 -8 0 -15 -5 -15 -11 0
-5 5 -7 10 -4 6 3 10 4 10 1 0 -3 -10 -10 -21 -17 -17 -9 -20 -8 -14 2 5 8 4
10 -3 5 -7 -4 -12 -14 -12 -22 0 -8 -7 -14 -16 -14 -10 0 -14 -6 -10 -15 3 -9
0 -15 -9 -15 -7 0 -16 -9 -20 -19 -4 -12 -12 -18 -21 -14 -8 3 -14 -1 -14 -11
0 -9 -7 -16 -15 -16 -8 0 -15 -7 -15 -15 0 -8 -6 -15 -14 -15 -7 0 -20 -8 -27
-17 -13 -16 -12 -17 4 -4 9 7 17 9 17 3 0 -5 -14 -15 -30 -22 -18 -8 -30 -20
-30 -31 0 -17 -11 -24 -33 -20 -5 1 -5 -3 -2 -9 4 -7 -2 -14 -15 -17 -13 -3
-19 -11 -16 -19 3 -8 -1 -14 -10 -14 -8 0 -13 -4 -10 -9 4 -5 -7 -15 -24 -23
-28 -12 -34 -21 -31 -40 0 -5 -5 -8 -13 -8 -8 0 -18 -9 -21 -20 -3 -11 -11
-20 -17 -20 -6 0 -5 7 3 17 11 13 11 15 1 9 -7 -4 -17 -19 -23 -33 -5 -15 -13
-21 -21 -17 -7 5 -9 2 -5 -8 7 -19 -11 -38 -36 -38 -12 0 -17 -5 -14 -14 3 -8
-1 -17 -9 -20 -10 -4 -12 -2 -8 6 5 7 3 8 -5 4 -7 -5 -10 -14 -7 -22 3 -8 -7
-20 -24 -31 -16 -9 -27 -20 -24 -25 3 -4 -3 -5 -12 -1 -13 5 -16 3 -11 -10 4
-11 1 -17 -7 -17 -8 0 -22 -8 -33 -17 -10 -10 -13 -14 -6 -9 8 5 13 4 13 -2 0
-6 -9 -14 -20 -17 -11 -3 -20 -10 -20 -15 0 -5 -9 -11 -20 -15 -11 -3 -19 -9
-19 -13 4 -22 -3 -31 -18 -25 -13 5 -15 2 -10 -11 4 -10 3 -15 -3 -11 -6 3
-10 -1 -10 -9 0 -9 -3 -15 -8 -15 -21 4 -30 -3 -36 -26 -4 -14 -11 -23 -16
-20 -5 3 -11 -4 -15 -14 -3 -11 -12 -18 -19 -15 -8 3 -16 -4 -19 -16 -4 -15
-10 -19 -19 -14 -7 4 -10 4 -6 -1 10 -11 -11 -47 -23 -39 -14 9 -39 -15 -32
-32 3 -8 -1 -14 -11 -14 -9 0 -16 -7 -16 -15 0 -8 -9 -15 -20 -15 -11 0 -20
-7 -20 -15 0 -8 -8 -15 -17 -15 -15 0 -16 -2 -3 -10 13 -8 13 -10 -1 -10 -9 0
-19 -9 -22 -21 -3 -12 -10 -18 -17 -14 -6 4 -9 1 -8 -7 2 -7 12 -18 23 -25 11
-7 14 -12 8 -13 -7 0 -13 -4 -13 -9 0 -5 8 -7 19 -4 10 3 22 -1 26 -8 6 -8 4
-10 -6 -4 -8 4 -5 -1 6 -12 11 -11 23 -19 27 -16 4 2 5 -3 2 -11 -4 -12 0 -16
16 -16 11 0 18 -4 15 -10 -3 -5 -1 -10 5 -10 6 0 8 -4 5 -10 -3 -5 3 -10 15
-10 12 0 18 -4 15 -10 -3 -5 -1 -10 4 -10 6 0 10 -3 8 -7 -1 -5 3 -9 8 -11 6
-2 13 -12 17 -23 4 -11 17 -19 30 -19 19 0 20 -2 8 -10 -11 -7 -12 -10 -2 -10
14 0 47 -29 47 -41 0 -4 4 -11 9 -16 5 -5 6 -3 2 5 -4 6 -3 12 3 12 5 0 13 -9
16 -20 3 -11 11 -20 16 -20 6 0 7 -6 3 -12 -6 -10 -4 -10 7 -1 7 7 21 13 32
13 10 0 15 5 12 10 -3 6 1 10 9 10 9 0 16 7 16 16 0 8 4 13 9 9 12 -7 33 29
23 39 -3 4 2 4 12 0 11 -4 17 -3 14 2 -8 12 17 35 28 26 4 -4 4 1 1 10 -4 11
-2 17 6 15 7 -1 11 3 10 10 -2 8 4 10 14 6 11 -4 14 -3 9 5 -4 7 -1 12 7 12 7
0 19 12 26 26 7 16 17 24 26 20 10 -3 12 0 8 11 -5 12 -3 14 7 8 10 -6 12 -4
7 8 -4 10 -2 16 6 14 7 -1 11 3 10 10 -2 7 4 10 13 6 9 -3 14 0 12 8 -2 8 3
13 10 12 6 -2 12 4 12 13 0 8 5 12 10 9 6 -3 10 -1 10 5 0 17 26 40 35 32 5
-4 5 1 2 10 -3 10 -3 17 1 17 20 -3 32 2 32 15 0 8 5 18 12 22 7 5 8 3 3 -6
-6 -9 -4 -11 4 -6 7 5 10 14 7 22 -3 8 -2 13 2 13 21 -3 32 2 26 13 -5 7 -2 9
8 5 10 -3 15 0 14 11 0 10 5 16 13 14 8 -2 11 3 8 12 -4 10 -1 13 7 10 8 -3
17 0 22 7 5 8 3 10 -6 4 -9 -5 -11 -4 -6 3 4 7 14 12 22 12 8 0 12 5 9 10 -3
6 -1 10 5 10 6 0 8 4 5 10 -4 6 1 7 11 3 12 -4 15 -3 10 5 -4 7 -1 12 9 12 9
0 13 5 10 11 -4 6 2 13 14 16 12 3 21 10 21 15 0 5 -6 6 -12 2 -8 -4 -10 -3
-5 2 9 9 13 10 42 13 8 0 15 6 15 12 0 5 -6 7 -12 3 -11 -6 -2 6 31 46 2 3 1
-4 -3 -15 -7 -19 -6 -18 13 2 12 12 21 26 21 31 0 12 54 62 68 62 7 0 12 7 12
16 0 9 5 12 12 8 7 -5 9 -2 5 9 -4 12 -2 14 10 10 11 -4 14 -3 9 5 -4 7 -1 15
8 18 9 3 13 11 9 17 -3 6 -1 7 5 3 7 -4 12 -2 12 3 0 6 7 11 16 11 8 0 12 5 9
10 -3 6 1 10 9 10 8 0 18 5 22 12 5 7 2 9 -7 4 -8 -4 -6 -1 3 7 10 8 16 17 13
20 -3 4 -2 5 1 2 4 -2 15 7 26 20 11 14 25 22 31 18 7 -4 8 0 3 12 -6 16 -4
16 11 4 12 -10 15 -11 9 -1 -5 8 1 22 17 36 14 13 23 27 19 30 -3 4 1 4 10 1
9 -4 19 -1 24 6 5 8 3 10 -7 5 -8 -4 -4 1 7 11 12 10 27 27 33 38 10 16 11 16
7 2 -3 -11 -2 -15 4 -12 6 3 10 16 10 28 0 13 3 17 8 11 8 -13 26 2 28 24 2
29 5 33 16 26 8 -5 9 -1 4 12 -6 15 -5 17 5 6 15 -14 33 -16 24 -2 -3 6 -2 10
3 10 4 0 7 27 7 60 -1 33 2 63 6 66 5 3 9 11 9 17 0 7 -4 6 -10 -3 -9 -13 -10
-13 -10 0 0 9 6 22 13 29 6 8 7 11 1 8 -6 -3 -11 0 -11 8 0 8 4 12 9 9 4 -3
11 2 14 10 3 9 11 13 17 9 7 -4 8 0 3 12 -5 15 -4 16 8 6 11 -9 16 -9 22 0 5
8 3 10 -7 4 -12 -7 -12 -6 -1 6 11 12 15 11 27 -5 8 -10 20 -16 28 -13 7 3 19
-5 27 -16 12 -21 12 -21 -6 -7 -17 14 -18 14 -6 -2 8 -10 20 -14 29 -11 12 5
14 3 8 -7 -6 -10 -2 -12 17 -8 16 3 25 0 25 -8 0 -7 -5 -10 -10 -7 -6 3 -7 1
-3 -6 4 -6 12 -9 17 -6 5 4 12 -1 15 -10 6 -13 8 -14 15 -3 7 10 9 11 9 0 0
-8 5 -10 13 -6 9 6 9 5 0 -7 -11 -13 -8 -15 17 -11 22 3 30 0 30 -11 0 -10 6
-13 19 -10 13 3 20 -2 24 -18 5 -20 8 -21 23 -8 12 9 15 10 10 2 -5 -9 1 -13
20 -13 20 0 24 -3 16 -13 -8 -10 -6 -13 9 -13 10 0 19 4 19 9 0 5 6 4 13 -2 8
-6 17 -8 20 -4 4 3 7 1 7 -6 0 -8 7 -11 15 -7 10 3 19 -1 23 -12 7 -18 42 -27
42 -10 0 5 5 6 10 3 6 -4 7 -12 3 -18 -4 -7 0 -6 10 2 15 12 17 11 17 -5 0
-16 2 -17 10 -4 9 14 14 7 11 -13 -1 -5 3 -6 9 -2 6 3 8 10 6 14 -3 4 1 8 9 8
8 0 15 -6 15 -13 0 -8 6 -11 14 -8 8 3 24 0 36 -6 18 -10 21 -10 14 2 -6 11
-5 11 8 0 14 -11 17 -10 21 5 4 17 5 17 6 0 0 -10 6 -15 11 -12 16 10 51 -5
44 -18 -5 -8 -2 -8 7 0 15 15 33 17 24 4 -3 -5 -1 -12 5 -16 5 -3 10 0 10 8 0
15 29 15 63 2 10 -5 17 -3 17 5 0 9 4 9 17 -1 11 -10 14 -10 9 -2 -4 7 -3 13
3 13 5 0 12 -6 14 -12 4 -10 6 -10 6 -1 1 7 8 10 16 7 8 -4 12 -11 8 -17 -3
-6 -1 -7 6 -3 6 4 9 12 6 17 -4 5 -2 9 4 9 5 0 12 -6 14 -12 4 -10 6 -10 6 -1
1 7 8 10 18 6 11 -4 14 -3 9 5 -4 7 -2 13 3 13 6 1 17 2 24 3 6 1 18 -2 25 -7
8 -6 12 -5 12 3 0 9 4 9 17 -1 11 -10 14 -10 9 -1 -4 6 -3 12 3 12 5 0 12 -6
14 -12 3 -7 6 -4 6 7 1 15 4 17 10 7 7 -11 10 -11 22 0 15 14 61 20 53 6 -3
-4 0 -8 5 -8 6 0 11 5 11 11 0 6 9 9 19 6 14 -3 18 -1 14 9 -4 10 0 12 12 8
10 -4 21 -1 25 6 5 8 16 15 24 16 9 1 14 -2 11 -6 -3 -5 -1 -12 5 -15 6 -4 9
-1 8 7 -2 7 4 12 14 10 9 -1 20 3 24 9 4 8 3 9 -4 5 -18 -11 -14 0 5 15 11 10
14 10 9 2 -4 -7 -2 -13 4 -13 6 0 13 7 17 16 5 13 7 13 14 2 7 -11 9 -11 9 1
0 11 3 11 15 1 13 -11 14 -10 10 2 -4 9 0 18 9 21 11 4 13 1 9 -11 -6 -14 -5
-15 9 -2 9 8 14 18 11 22 -2 5 2 8 11 8 8 0 16 -3 19 -7 2 -5 2 -2 1 5 -2 6 1
12 7 12 6 0 7 6 3 12 -4 7 3 4 16 -7 20 -17 23 -18 17 -2 -4 11 -1 17 9 17 8
0 12 5 9 10 -4 6 7 13 25 16 17 4 28 9 26 12 -10 9 28 31 54 32 14 1 20 4 13
6 -8 4 -7 11 4 24 9 10 20 17 25 14 4 -3 8 0 8 6 0 6 4 8 10 5 6 -4 7 1 3 11
-4 12 -3 15 5 10 7 -4 12 -2 12 5 0 9 4 9 15 -1 12 -10 13 -8 10 10 -4 19 -2
20 12 8 12 -9 15 -9 9 0 -4 6 -2 12 3 12 6 0 10 6 8 13 -1 6 4 11 11 10 6 -2
12 2 12 8 0 17 68 81 79 75 6 -4 8 4 5 18 -3 18 1 25 17 29 16 4 20 11 15 24
-4 9 -4 14 0 11 4 -4 15 -3 26 3 11 6 17 13 14 16 -8 8 14 44 23 39 5 -3 7 6
5 19 -1 16 2 23 9 18 7 -4 8 0 3 12 -6 16 -4 16 11 4 11 -9 14 -10 9 -1 -4 6
-3 12 3 12 6 0 8 7 5 15 -4 8 1 17 10 21 13 5 14 9 5 20 -9 11 -8 15 5 20 9 3
16 13 16 20 0 8 7 17 15 20 11 5 13 10 5 19 -8 10 -8 15 1 21 8 5 9 3 4 -6 -6
-9 -4 -11 4 -6 7 5 10 15 7 23 -4 10 -2 13 8 10 10 -4 12 0 8 15 -4 16 -2 19
8 13 9 -6 11 -4 5 5 -4 7 -2 16 6 21 10 6 11 9 2 9 -7 0 -13 5 -13 11 0 5 5 7
12 3 8 -5 9 -2 5 10 -6 14 -3 17 10 12 15 -5 15 -4 -1 9 -11 8 -15 15 -9 15
12 0 39 68 35 84 -2 5 5 18 15 29 13 15 14 18 3 13 -8 -4 1 8 22 27 20 20 35
37 33 39 -2 2 3 9 11 16 8 7 14 11 14 8 0 -3 10 5 23 17 13 12 22 25 20 30 -2
4 1 7 8 7 6 0 20 10 30 22 11 11 19 16 19 9 0 -7 4 -10 9 -6 5 3 12 -4 16 -15
4 -11 9 -19 13 -17 4 3 23 -15 42 -39 19 -23 40 -43 47 -43 6 -1 15 -10 18
-22 4 -11 9 -18 12 -16 4 5 14 -4 91 -87 19 -20 38 -36 43 -36 6 0 8 -4 4 -9
-3 -5 4 -12 15 -16 11 -3 20 -12 20 -20 0 -8 9 -17 20 -20 11 -3 20 -12 21
-18 0 -7 20 -28 43 -47 24 -19 41 -38 39 -42 -2 -5 3 -8 12 -8 9 0 13 -4 10
-10 -3 -5 1 -10 9 -10 8 0 17 -8 21 -17 3 -10 21 -29 40 -43 19 -14 37 -32 40
-40 3 -8 21 -26 39 -40 19 -14 33 -26 31 -28 -4 -5 67 -72 77 -72 5 0 7 -4 3
-9 -3 -5 4 -12 15 -16 11 -3 20 -13 20 -21 0 -8 5 -12 10 -9 6 3 10 -1 10 -10
0 -9 3 -14 8 -12 4 2 23 -15 42 -39 19 -23 40 -43 47 -43 6 -1 15 -10 18 -21
3 -11 12 -20 20 -20 8 0 17 -9 20 -20 4 -11 9 -18 13 -16 8 4 27 -14 30 -27 0
-5 18 -22 38 -38 20 -16 33 -29 28 -29 -5 0 4 -7 20 -15 15 -8 35 -15 42 -15
8 0 14 -4 14 -10 0 -5 9 -10 20 -10 11 0 20 -5 20 -11 0 -8 6 -7 17 2 12 11
17 11 20 2 3 -8 12 -9 28 -3 12 5 26 6 29 3 3 -4 6 -1 6 6 0 7 4 10 9 6 5 -3
12 -1 16 5 4 6 11 8 16 5 5 -4 9 -1 9 5 0 6 3 9 8 6 10 -6 83 60 75 68 -3 3 1
6 10 6 8 0 19 9 22 20 3 11 12 20 18 20 8 0 8 3 -1 9 -11 7 -11 10 0 22 17 18
17 120 0 137 -7 8 -10 18 -6 23 3 5 -2 16 -10 25 -9 9 -14 19 -11 23 2 5 -9
20 -25 35 -17 14 -30 30 -30 35 0 5 -9 13 -20 16 -11 3 -20 11 -20 16 0 13
-26 40 -32 34 -3 -3 -11 6 -18 20 -7 14 -17 25 -22 25 -11 0 -68 61 -68 72 0
5 -4 6 -10 3 -5 -3 -10 1 -10 9 0 9 -7 16 -17 16 -9 0 -14 3 -10 6 7 8 -17 34
-32 34 -5 0 -12 9 -16 19 -3 11 -14 23 -23 26 -9 3 -28 21 -42 40 -14 19 -30
35 -37 35 -6 0 -15 9 -18 20 -3 11 -13 20 -21 20 -8 0 -13 4 -9 9 3 5 -3 12
-13 15 -10 4 -25 18 -32 31 -7 14 -19 25 -26 25 -7 0 -15 9 -19 19 -3 11 -15
23 -26 26 -10 4 -19 13 -19 21 0 8 -7 14 -16 14 -8 0 -12 5 -9 10 3 6 2 10 -3
10 -11 0 -72 57 -72 68 0 5 -11 15 -25 22 -13 7 -22 16 -20 20 2 4 -7 13 -20
20 -19 10 -22 16 -14 27 6 7 16 10 23 6 17 -11 50 -9 58 2 5 6 8 5 8 -4 0 -11
3 -11 15 -1 8 7 15 9 15 4 0 -10 92 -10 109 0 6 4 11 4 11 -1 0 -4 23 -8 50
-8 28 0 50 3 50 7 0 4 14 3 30 -2 19 -5 30 -5 30 1 0 6 7 6 19 -1 13 -7 22 -7
26 0 4 7 13 6 27 -1 15 -8 22 -8 28 1 6 9 9 9 13 -1 4 -11 6 -11 6 -1 1 10 6
10 21 2 14 -8 20 -8 20 0 0 7 6 8 19 0 13 -7 22 -7 26 0 4 7 13 6 27 -1 15 -8
22 -8 28 1 6 9 9 9 13 -1 4 -11 6 -11 6 -1 1 9 6 10 20 2 14 -7 21 -6 24 3 4
9 6 8 6 -2 1 -11 4 -11 16 -1 8 7 15 9 15 4 0 -10 92 -10 109 0 6 4 11 4 11
-1 0 -4 23 -8 50 -8 28 0 50 3 50 7 0 4 14 3 30 -2 17 -5 30 -5 30 -1 0 5 11
6 25 3 15 -2 25 0 25 7 0 7 5 9 11 6 6 -4 17 1 25 11 9 11 13 13 9 7 -8 -16 1
-17 18 -3 7 6 23 19 36 30 13 11 21 20 17 20 -4 0 2 10 14 22 11 12 20 28 20
35 0 9 5 11 13 7 9 -6 9 -5 0 7 -9 11 -9 19 -2 26 6 6 9 55 7 127 -2 64 -1
116 2 116 3 0 3 58 0 130 -3 72 -3 130 0 130 3 0 3 49 0 110 -3 61 -2 110 1
110 5 0 2 90 -5 123 -2 9 0 17 4 17 4 0 6 9 3 20 -3 11 0 20 6 20 6 0 11 -5
11 -11 0 -5 5 -7 12 -3 6 4 8 3 5 -3 -6 -10 64 -83 80 -83 16 0 74 -66 66 -75
-5 -4 -3 -6 2 -3 6 4 26 -9 45 -28 19 -19 38 -34 43 -34 5 0 15 -7 23 -15 9
-8 12 -15 7 -15 -4 0 4 -8 17 -17 14 -9 31 -25 38 -35 7 -10 18 -18 23 -18 15
0 39 -27 31 -34 -3 -4 1 -4 11 0 11 4 17 1 17 -7 0 -8 19 -30 42 -49 22 -19
56 -49 74 -66 19 -18 34 -30 34 -27 0 2 7 -2 15 -11 8 -8 15 -19 15 -25 0 -5
5 -13 12 -17 7 -5 9 -2 4 7 -5 8 -2 8 6 -2 7 -9 20 -14 28 -11 8 3 12 1 8 -3
-4 -4 17 -31 47 -59 76 -71 82 -76 89 -69 3 4 6 2 6 -4 0 -6 9 -9 20 -6 18 5
24 15 21 36 0 4 3 7 8 7 5 0 11 14 13 30 3 17 0 30 -6 30 -6 0 -5 5 2 12 16
16 15 31 0 22 -9 -5 -9 -2 1 9 11 14 11 17 0 17 -10 0 -10 3 -1 12 16 16 15
31 0 22 -9 -5 -9 -2 1 9 11 14 11 17 0 17 -10 0 -10 3 -1 12 16 16 15 31 0 22
-9 -5 -9 -2 1 9 11 14 11 17 0 17 -10 0 -10 3 -1 12 16 16 15 31 0 22 -9 -5
-9 -2 1 9 10 13 10 17 1 17 -9 0 -10 3 -1 13 8 10 7 17 -2 27 -6 7 -7 10 -1 7
7 -4 11 5 11 23 0 18 -4 27 -11 23 -6 -4 -5 1 3 10 11 14 11 17 0 17 -10 0
-10 3 -1 12 16 16 15 31 0 22 -9 -5 -9 -2 1 9 11 14 11 17 0 17 -10 0 -10 3
-1 12 16 16 15 31 0 22 -9 -5 -9 -2 1 9 11 14 11 17 0 17 -10 0 -10 3 -1 12
16 16 15 31 0 22 -9 -5 -9 -2 1 9 11 14 11 17 0 17 -10 0 -10 3 -1 12 16 16
15 31 0 22 -9 -5 -9 -2 1 9 11 14 11 17 0 17 -10 0 -10 3 -1 12 16 16 15 31 0
22 -9 -5 -9 -2 1 9 11 14 11 17 0 17 -10 0 -10 3 -1 12 16 16 15 31 0 22 -9
-5 -9 -2 1 9 11 14 11 17 0 17 -10 0 -10 3 -1 12 16 16 15 31 0 22 -9 -5 -9
-2 1 9 11 14 11 17 0 17 -10 0 -10 3 -1 12 16 16 15 31 0 22 -9 -5 -9 -2 1 9
9 12 10 17 2 17 -7 0 -9 5 -5 11 11 19 10 448 -1 441 -5 -3 -4 2 4 11 11 14
11 17 0 17 -10 0 -10 3 -1 12 16 16 15 31 0 22 -9 -5 -9 -2 1 9 11 14 11 17 0
17 -10 0 -10 3 -1 12 16 16 15 31 0 22 -9 -5 -9 -2 1 9 11 14 11 17 0 17 -10
0 -10 3 -1 12 16 16 15 31 0 22 -9 -5 -9 -2 1 9 11 14 11 17 0 17 -10 0 -10 3
-1 12 16 16 15 31 0 22 -9 -5 -9 -2 1 9 11 14 11 17 0 17 -10 0 -10 3 -1 12
16 16 15 31 0 22 -9 -5 -9 -2 1 9 11 14 11 17 0 17 -10 0 -10 3 -1 12 16 16
15 31 0 22 -9 -5 -9 -2 1 9 11 14 11 17 0 17 -10 0 -10 3 -1 12 16 16 15 31 0
22 -9 -5 -9 -2 1 9 11 14 11 17 0 17 -10 0 -10 3 -1 12 16 16 15 31 0 22 -9
-5 -9 -2 1 9 9 12 10 17 2 17 -7 0 -9 5 -5 11 10 17 10 289 0 289 -5 0 -6 3
-3 6 4 4 -3 20 -15 36 -14 20 -23 26 -28 18 -4 -6 -10 -11 -14 -11 -19 3 -27
0 -22 -8 3 -5 -1 -12 -10 -15 -10 -4 -13 -2 -8 7 9 16 -26 -21 -54 -57 -12
-16 -22 -25 -22 -20 0 5 -11 -4 -25 -20 -14 -16 -25 -26 -25 -21 0 4 -25 -18
-55 -49 -30 -31 -59 -56 -65 -56 -5 0 -10 -4 -10 -10 0 -5 -7 -10 -16 -10 -8
0 -12 -4 -9 -10 3 -5 2 -10 -4 -10 -5 0 -22 -11 -37 -25 -15 -14 -23 -25 -19
-25 11 0 -36 -35 -58 -43 -10 -4 -15 -11 -12 -17 3 -5 2 -10 -3 -10 -15 0 -82
-62 -77 -71 3 -4 -8 -10 -25 -14 -17 -4 -28 -10 -26 -13 4 -8 -20 -33 -26 -27
-2 2 -12 -9 -23 -26 -11 -16 -26 -29 -34 -29 -8 0 -11 -3 -8 -7 4 -4 -7 -13
-24 -20 -19 -8 -28 -17 -23 -25 5 -8 2 -9 -10 -5 -9 4 -15 3 -14 -1 4 -8 -53
-66 -68 -69 -6 -1 -11 5 -11 13 0 7 5 14 11 14 6 0 4 5 -4 10 -13 9 -13 10 0
10 9 0 11 3 5 8 -10 7 -15 162 -5 162 3 0 3 49 0 110 -3 61 -3 110 0 110 3 0
4 54 2 120 -2 72 -7 118 -13 115 -5 -4 -9 -1 -9 5 0 8 -5 7 -14 -2 -37 -36
-86 -78 -91 -78 -12 0 -34 -28 -27 -34 3 -4 -1 -4 -11 0 -9 3 -17 2 -17 -4 0
-5 -13 -15 -30 -22 -16 -7 -28 -16 -25 -20 3 -5 -8 -11 -25 -15 -16 -4 -30
-11 -30 -17 0 -6 -9 -8 -20 -5 -11 3 -18 1 -14 -4 5 -8 -8 -12 -22 -6 -3 1
-10 -6 -15 -16 -6 -9 -14 -15 -20 -12 -5 4 -9 1 -9 -6 0 -7 -3 -10 -6 -6 -3 3
-22 -3 -41 -14 -19 -11 -38 -17 -44 -14 -5 4 -9 1 -9 -5 0 -6 -4 -8 -10 -5 -5
3 -10 2 -10 -3 0 -10 -55 -26 -77 -23 -7 1 -13 -3 -13 -8 0 -5 -9 -8 -20 -6
-11 2 -25 -2 -32 -8 -7 -7 -26 -13 -43 -14 -16 -1 -43 -4 -60 -7 -16 -3 -40
-7 -52 -9 -12 -2 -26 -6 -29 -10 -4 -4 -13 -2 -21 4 -10 9 -13 8 -13 -1 0 -10
-3 -10 -15 0 -11 9 -15 9 -15 1 0 -8 -6 -9 -17 -4 -22 11 -74 10 -90 0 -7 -5
-13 -4 -13 2 0 6 -11 6 -29 1 -21 -6 -31 -5 -35 3 -3 8 -5 7 -5 -2 -1 -11 -4
-11 -16 -1 -11 9 -15 9 -15 1 0 -9 -5 -9 -21 0 -12 6 -19 7 -15 1 3 -5 -11 -4
-32 3 -28 10 -40 10 -51 2 -12 -10 -13 -9 -6 2 6 11 3 13 -13 9 -12 -4 -22 -2
-22 4 0 6 -9 8 -20 5 -11 -3 -20 -2 -20 3 0 4 -9 10 -20 13 -11 3 -18 2 -15
-2 2 -4 -2 -8 -10 -8 -8 0 -12 4 -9 9 3 4 -2 8 -11 8 -10 0 -13 5 -9 13 6 9 3
8 -8 -1 -14 -11 -21 -11 -41 2 -13 9 -27 13 -30 9 -4 -3 -7 -1 -7 6 0 7 -4 10
-9 6 -5 -3 -16 2 -24 10 -12 11 -17 12 -20 2 -4 -9 -6 -9 -6 1 -1 7 -5 10 -11
7 -5 -3 -10 -2 -10 4 0 6 -7 7 -17 4 -12 -5 -14 -3 -8 7 6 10 4 12 -8 7 -10
-4 -20 0 -26 11 -6 9 -11 13 -11 7 0 -5 -5 -3 -10 5 -8 13 -10 13 -10 0 0 -10
-5 -7 -15 7 -10 14 -21 20 -32 16 -11 -4 -14 -3 -9 5 5 8 0 12 -13 12 -12 0
-21 6 -21 13 0 8 -7 14 -15 15 -8 1 -22 3 -30 4 -8 1 -15 6 -15 12 0 11 -26
32 -43 34 -10 2 -31 19 -79 65 -21 20 -46 37 -54 37 -8 0 -12 5 -9 10 3 6 -1
10 -9 10 -8 0 -18 9 -21 20 -3 11 -11 20 -17 20 -12 0 -47 41 -48 57 0 6 -9
15 -21 18 -11 4 -18 9 -15 12 3 3 -4 14 -15 24 -12 10 -18 23 -13 30 4 7 3 9
-3 6 -5 -3 -15 3 -23 13 -8 10 -18 16 -23 13 -6 -3 -7 -1 -4 5 9 14 -3 43 -14
36 -5 -3 -9 2 -9 10 0 22 -12 20 -33 -4z m-2327 -2074 c0 -2 -7 -7 -16 -10 -8
-3 -12 -2 -9 4 6 10 25 14 25 6z m429 -143 c-8 -9 -9 -14 -4 -11 13 8 14 -45
0 -54 -7 -5 -7 -11 0 -15 17 -13 17 -36 1 -30 -9 4 -18 1 -22 -5 -4 -6 -3 -8
2 -5 6 3 16 2 24 -3 11 -7 11 -11 1 -24 -11 -13 -11 -16 0 -16 11 0 11 -2 -1
-10 -10 -6 -11 -10 -2 -10 6 0 12 -5 12 -11 0 -5 -6 -7 -12 -3 -10 5 -10 4 -1
-6 9 -10 10 -17 2 -27 -7 -7 -7 -13 -3 -13 13 0 11 -133 -1 -142 -7 -5 -7 -10
0 -15 19 -14 17 -36 -2 -29 -16 5 -16 4 1 -9 16 -12 17 -17 6 -30 -10 -12 -10
-15 1 -16 12 0 12 -1 0 -6 -11 -5 -11 -7 0 -14 12 -7 11 -9 -1 -9 -13 0 -13
-2 -1 -9 12 -8 12 -12 2 -25 -11 -13 -11 -16 0 -16 11 0 11 -2 -1 -10 -8 -5
-10 -10 -4 -10 12 0 12 -29 0 -48 -4 -6 -2 -12 3 -12 6 0 11 -9 11 -21 0 -11
4 -18 8 -15 4 2 9 -7 10 -21 1 -15 11 -32 22 -40 11 -8 18 -19 15 -24 -3 -5 1
-6 9 -3 12 5 16 0 16 -17 0 -19 2 -21 10 -9 8 13 10 12 10 -3 0 -10 5 -15 10
-12 6 3 10 1 10 -4 0 -6 9 -11 20 -11 11 0 20 -6 20 -13 0 -7 9 -13 20 -14 11
-1 18 2 15 7 -3 5 8 2 25 -7 17 -8 37 -12 45 -9 10 3 15 -1 15 -12 0 -13 2
-14 9 -3 10 16 131 22 131 6 0 -5 7 -1 15 9 8 11 15 14 15 8 0 -7 9 -12 21
-12 11 0 17 4 14 10 -3 6 1 7 9 4 9 -3 13 -11 10 -16 -5 -7 0 -7 12 0 12 6 25
7 36 1 11 -6 19 -5 24 3 5 7 3 8 -6 3 -9 -5 -11 -4 -6 3 5 9 12 9 26 0 10 -7
16 -16 13 -22 -4 -5 -1 -6 6 -2 7 5 10 15 6 23 -4 12 -2 13 7 6 7 -6 27 -11
43 -11 67 0 75 -2 75 -19 0 -14 2 -15 9 -5 6 11 10 10 15 -3 5 -14 9 -15 21
-5 11 9 15 9 15 1 0 -7 5 -9 10 -6 6 3 10 0 11 -7 0 -10 2 -11 6 0 4 10 8 10
21 0 12 -10 14 -10 8 0 -8 14 19 12 43 -2 9 -6 12 -5 8 1 -8 13 142 12 162 -1
10 -6 12 -6 7 2 -4 7 -1 12 8 12 21 0 20 -12 -3 -32 -14 -12 -22 -13 -31 -5
-10 9 -11 9 -6 0 10 -17 -11 -53 -31 -53 -9 0 -14 -3 -10 -6 12 -12 -17 -33
-31 -22 -9 8 -11 7 -6 -5 7 -19 -32 -61 -48 -51 -8 5 -9 1 -5 -10 5 -13 1 -19
-14 -23 -12 -3 -18 -11 -15 -19 3 -8 -1 -14 -9 -14 -8 0 -15 -4 -15 -10 0 -5
-3 -9 -8 -7 -4 1 -8 -1 -9 -6 -5 -15 -28 -35 -35 -30 -5 2 -8 -2 -8 -9 0 -7
-19 -31 -43 -53 -24 -22 -41 -47 -39 -54 3 -10 0 -12 -11 -8 -9 3 -19 1 -23
-5 -5 -7 -2 -8 6 -3 8 5 11 3 8 -6 -3 -8 -11 -13 -17 -11 -9 2 -9 -3 0 -19 8
-15 8 -19 0 -15 -6 4 -11 2 -11 -5 0 -8 -5 -7 -17 2 -16 12 -17 12 -6 -1 17
-23 19 -55 4 -73 -10 -12 -10 -21 -3 -30 6 -7 7 -18 2 -26 -4 -8 -5 -21 -2
-30 5 -14 4 -14 -14 -1 -19 14 -19 14 0 -8 23 -27 28 -49 14 -59 -7 -3 -8 -1
-4 5 9 15 -6 16 -21 1 -8 -8 -13 -7 -18 2 -5 7 -4 10 1 7 5 -4 10 6 11 20 1
26 0 25 -18 -8 -10 -19 -18 -29 -19 -22 0 7 -5 10 -12 6 -7 -4 -8 -3 -4 5 4 6
13 8 19 5 7 -4 8 -3 4 2 -5 5 -13 10 -18 10 -5 1 -10 2 -11 4 -9 7 -50 5 -55
-3 -3 -6 -1 -7 5 -3 7 4 12 2 12 -3 0 -16 -11 -13 -33 7 -11 9 -17 12 -14 5 4
-6 3 -14 -3 -18 -9 -6 -14 7 -11 28 0 4 -6 7 -15 7 -8 0 -13 -4 -10 -8 3 -5
-1 -9 -9 -9 -8 0 -11 5 -8 10 4 6 0 8 -9 4 -20 -7 -31 3 -18 17 6 8 3 12 -11
12 -11 0 -18 -5 -15 -11 2 -7 -2 -12 -10 -12 -7 0 -11 4 -8 9 5 7 -10 12 -28
9 -4 0 -5 6 -2 14 5 11 2 13 -10 9 -18 -7 -49 19 -38 32 4 5 3 6 -2 2 -5 -4
-18 -3 -30 3 -20 10 -20 10 -2 -5 11 -9 15 -16 8 -16 -7 0 -17 9 -24 19 -7 12
-16 17 -23 11 -6 -4 -16 -1 -25 8 -13 14 -12 15 2 10 9 -4 19 -1 22 7 4 10 -2
11 -26 4 -17 -4 -28 -6 -25 -2 4 3 2 14 -4 25 -7 13 -14 16 -22 10 -8 -7 -17
-5 -27 6 -13 14 -13 15 1 10 10 -4 15 0 15 13 0 12 -4 15 -10 9 -12 -12 -39
-13 -32 -1 3 4 -3 18 -13 30 -14 16 -21 18 -24 9 -4 -9 -6 -7 -6 4 -1 9 5 19
12 22 6 3 2 3 -10 0 -16 -4 -23 -1 -23 9 0 8 -9 17 -20 20 -11 3 -20 9 -19 14
3 19 -2 33 -12 33 -8 0 -8 -4 0 -14 9 -11 9 -16 0 -22 -8 -4 -9 -3 -5 5 4 6 0
14 -9 17 -13 5 -13 9 -3 22 10 12 10 14 1 8 -8 -4 -13 -2 -13 4 0 6 -4 9 -9 6
-4 -3 -7 6 -5 20 2 19 -1 23 -10 15 -9 -7 -12 -3 -14 16 -1 15 -7 30 -14 34
-6 4 -8 15 -4 24 5 15 4 16 -9 5 -15 -12 -22 0 -8 14 11 10 12 37 2 30 -5 -3
-9 -1 -9 5 0 5 5 13 10 16 6 3 10 12 10 18 0 7 -5 4 -11 -5 -11 -20 -33 -25
-26 -5 2 6 -2 24 -9 38 -7 15 -10 30 -6 33 3 4 -2 4 -13 0 -18 -7 -19 -6 -5
11 9 11 10 16 3 11 -8 -4 -13 -1 -13 8 0 9 -4 16 -9 16 -11 0 -9 19 3 39 6 10
5 12 -2 7 -7 -4 -12 -2 -12 3 0 6 6 11 14 11 8 0 18 4 21 10 3 5 0 7 -9 4 -8
-3 -23 -1 -33 5 -10 6 -12 11 -5 11 6 0 12 5 12 10 0 6 -4 9 -9 8 -5 -2 -9 2
-9 7 0 6 4 9 9 7 5 -1 9 2 9 8 0 5 -6 10 -12 11 -7 0 -4 4 7 9 16 7 16 9 4 9
-11 1 -16 9 -15 25 0 13 4 22 8 20 4 -2 9 0 13 6 6 9 -8 15 -29 11 -5 -1 -4 4
1 11 6 7 10 27 9 45 -1 17 2 30 6 27 4 -3 8 0 8 5 0 6 -4 11 -8 11 -5 0 -9 7
-9 15 0 8 4 12 9 9 4 -3 8 0 8 5 0 6 -4 11 -8 11 -5 0 -9 7 -9 15 0 8 4 12 9
9 4 -3 8 0 8 5 0 6 -6 11 -12 11 -9 0 -8 3 2 10 9 6 19 5 29 -3 12 -10 12 -9
0 11 -8 12 -15 18 -17 12 -2 -5 -8 -10 -14 -10 -6 0 -5 6 2 15 7 9 20 13 29
10 13 -4 13 -3 -1 8 -16 13 -19 39 -5 53 13 13 7 23 -10 18 -15 -5 -15 -4 -3
4 10 8 19 7 29 -1 12 -10 13 -9 3 10 -8 14 -9 24 -2 28 15 9 12 27 -2 19 -7
-4 -2 5 12 21 14 16 19 25 11 20 -9 -5 -12 -3 -9 6 3 8 11 13 18 11 7 -2 9 4
5 17 -6 21 36 76 50 63 5 -4 4 0 -1 8 -15 26 -12 36 10 36 15 -1 20 4 18 18
-2 13 1 16 10 10 9 -6 9 -3 -1 10 -13 16 -13 17 5 14 14 -2 19 2 18 20 -1 12
1 21 3 18 6 -6 33 19 33 29 0 3 -5 3 -12 -1 -7 -4 -8 -3 -4 4 4 7 16 12 28 12
18 0 19 -2 7 -17z m-185 -959 c3 -8 2 -12 -4 -9 -6 3 -10 10 -10 16 0 14 7 11
14 -7z m2246 -8 c0 -3 -4 -8 -10 -11 -5 -3 -10 -1 -10 4 0 6 5 11 10 11 6 0
10 -2 10 -4z m-2230 -20 c0 -3 -4 -8 -10 -11 -5 -3 -10 -1 -10 4 0 6 5 11 10
11 6 0 10 -2 10 -4z m20 -51 c11 -13 10 -14 -4 -9 -9 3 -16 10 -16 15 0 13 6
11 20 -6z m-249 -402 c13 -16 12 -17 -3 -4 -17 13 -22 21 -14 21 2 0 10 -8 17
-17z"/>
<path d="M2315 3520 c3 -5 8 -10 11 -10 2 0 4 5 4 10 0 6 -5 10 -11 10 -5 0
-7 -4 -4 -10z"/>
<path d="M2186 3353 c-4 -9 -2 -21 4 -27 8 -8 9 -6 4 8 -5 12 -4 17 3 13 5 -3
10 0 10 8 0 20 -13 19 -21 -2z"/>
<path d="M2210 3259 c0 -5 5 -7 10 -4 6 3 10 8 10 11 0 2 -4 4 -10 4 -5 0 -10
-5 -10 -11z"/>
<path d="M2150 3220 c0 -5 5 -10 11 -10 5 0 7 5 4 10 -3 6 -8 10 -11 10 -2 0
-4 -4 -4 -10z"/>
<path d="M2314 3200 c0 -13 4 -16 10 -10 7 7 7 13 0 20 -6 6 -10 3 -10 -10z"/>
<path d="M2210 3139 c0 -5 5 -7 10 -4 6 3 10 8 10 11 0 2 -4 4 -10 4 -5 0 -10
-5 -10 -11z"/>
<path d="M2255 3100 c3 -5 8 -10 11 -10 2 0 4 5 4 10 0 6 -5 10 -11 10 -5 0
-7 -4 -4 -10z"/>
<path d="M2199 3058 c-5 -18 -6 -38 -1 -34 7 8 12 36 6 36 -2 0 -4 -1 -5 -2z"/>
<path d="M2215 2940 c-3 -5 -1 -10 4 -10 6 0 11 5 11 10 0 6 -2 10 -4 10 -3 0
-8 -4 -11 -10z"/>
<path d="M2250 2899 c0 -5 5 -7 10 -4 6 3 10 8 10 11 0 2 -4 4 -10 4 -5 0 -10
-5 -10 -11z"/>
<path d="M2130 2819 c0 -5 5 -7 10 -4 6 3 10 8 10 11 0 2 -4 4 -10 4 -5 0 -10
-5 -10 -11z"/>
<path d="M2196 2793 c-6 -14 -5 -15 5 -6 7 7 10 15 7 18 -3 3 -9 -2 -12 -12z"/>
<path d="M2290 2779 c0 -5 5 -7 10 -4 6 3 10 8 10 11 0 2 -4 4 -10 4 -5 0 -10
-5 -10 -11z"/>
<path d="M2193 2725 c0 -8 4 -15 9 -15 4 0 8 4 8 9 0 6 -4 12 -8 15 -5 3 -9
-1 -9 -9z"/>
<path d="M2319 2713 c-13 -16 -12 -17 4 -4 16 13 21 21 13 21 -2 0 -10 -8 -17
-17z"/>
<path d="M2425 2720 c-3 -6 1 -7 9 -4 18 7 21 14 7 14 -6 0 -13 -4 -16 -10z"/>
<path d="M2135 2700 c-3 -5 -1 -10 4 -10 6 0 11 5 11 10 0 6 -2 10 -4 10 -3 0
-8 -4 -11 -10z"/>
<path d="M2389 2683 c-13 -16 -12 -17 4 -4 16 13 21 21 13 21 -2 0 -10 -8 -17
-17z"/>
<path d="M2236 2678 c3 -5 10 -6 15 -3 13 9 11 12 -6 12 -8 0 -12 -4 -9 -9z"/>
<path d="M2304 2682 c4 -3 14 -7 22 -8 9 -1 13 0 10 4 -4 3 -14 7 -22 8 -9 1
-13 0 -10 -4z"/>
<path d="M2815 2660 c-3 -5 -1 -10 4 -10 6 0 11 5 11 10 0 6 -2 10 -4 10 -3 0
-8 -4 -11 -10z"/>
<path d="M2189 2643 c-13 -16 -12 -17 4 -4 9 7 17 15 17 17 0 8 -8 3 -21 -13z"/>
<path d="M2556 2642 c-3 -5 1 -9 9 -9 8 0 12 4 9 9 -3 4 -7 8 -9 8 -2 0 -6 -4
-9 -8z"/>
<path d="M2759 2633 c-13 -16 -12 -17 4 -4 16 13 21 21 13 21 -2 0 -10 -8 -17
-17z"/>
<path d="M2330 2620 c0 -5 5 -10 11 -10 5 0 7 5 4 10 -3 6 -8 10 -11 10 -2 0
-4 -4 -4 -10z"/>
<path d="M3175 2620 c3 -5 8 -10 11 -10 2 0 4 5 4 10 0 6 -5 10 -11 10 -5 0
-7 -4 -4 -10z"/>
<path d="M3290 2619 c0 -5 5 -7 10 -4 6 3 10 8 10 11 0 2 -4 4 -10 4 -5 0 -10
-5 -10 -11z"/>
<path d="M2233 2605 c0 -8 4 -12 9 -9 5 3 6 10 3 15 -9 13 -12 11 -12 -6z"/>
<path d="M2199 2593 c-13 -16 -12 -17 4 -4 9 7 17 15 17 17 0 8 -8 3 -21 -13z"/>
<path d="M2479 2593 c-13 -16 -12 -17 4 -4 16 13 21 21 13 21 -2 0 -10 -8 -17
-17z"/>
<path d="M2650 2580 c0 -5 5 -10 11 -10 5 0 7 5 4 10 -3 6 -8 10 -11 10 -2 0
-4 -4 -4 -10z"/>
<path d="M2750 2576 c0 -2 8 -10 18 -17 15 -13 16 -12 3 4 -13 16 -21 21 -21
13z"/>
<path d="M2820 2566 c0 -2 8 -10 18 -17 15 -13 16 -12 3 4 -13 16 -21 21 -21
13z"/>
<path d="M2910 2561 c0 -6 4 -13 10 -16 6 -3 7 1 4 9 -7 18 -14 21 -14 7z"/>
<path d="M2410 2539 c0 -5 5 -7 10 -4 6 3 10 8 10 11 0 2 -4 4 -10 4 -5 0 -10
-5 -10 -11z"/>
<path d="M2555 2529 c-4 -6 -5 -12 -2 -15 2 -3 7 2 10 11 7 17 1 20 -8 4z"/>
<path d="M2615 2500 c-3 -5 -1 -10 4 -10 6 0 11 5 11 10 0 6 -2 10 -4 10 -3 0
-8 -4 -11 -10z"/>
<path d="M3010 2499 c0 -5 5 -7 10 -4 6 3 10 8 10 11 0 2 -4 4 -10 4 -5 0 -10
-5 -10 -11z"/>
<path d="M3095 2500 c-3 -5 -1 -10 4 -10 6 0 11 5 11 10 0 6 -2 10 -4 10 -3 0
-8 -4 -11 -10z"/>
<path d="M2829 2483 c-13 -16 -12 -17 4 -4 16 13 21 21 13 21 -2 0 -10 -8 -17
-17z"/>
<path d="M2670 2481 c0 -6 4 -12 8 -15 5 -3 9 1 9 9 0 8 -4 15 -9 15 -4 0 -8
-4 -8 -9z"/>
<path d="M3150 2481 c0 -6 4 -12 8 -15 5 -3 9 1 9 9 0 8 -4 15 -9 15 -4 0 -8
-4 -8 -9z"/>
<path d="M3216 2482 c-3 -5 1 -9 9 -9 8 0 12 4 9 9 -3 4 -7 8 -9 8 -2 0 -6 -4
-9 -8z"/>
<path d="M2230 2470 c-9 -6 -10 -10 -3 -10 6 0 15 5 18 10 8 12 4 12 -15 0z"/>
<path d="M2735 2460 c3 -5 8 -10 11 -10 2 0 4 5 4 10 0 6 -5 10 -11 10 -5 0
-7 -4 -4 -10z"/>
<path d="M2380 2446 c0 -2 8 -10 18 -17 15 -13 16 -12 3 4 -13 16 -21 21 -21
13z"/>
<path d="M2960 2440 c-9 -6 -10 -10 -3 -10 6 0 15 5 18 10 8 12 4 12 -15 0z"/>
<path d="M2490 2420 c0 -5 5 -10 11 -10 5 0 7 5 4 10 -3 6 -8 10 -11 10 -2 0
-4 -4 -4 -10z"/>
<path d="M2815 2420 c3 -5 8 -10 11 -10 2 0 4 5 4 10 0 6 -5 10 -11 10 -5 0
-7 -4 -4 -10z"/>
<path d="M2316 2407 c3 -10 9 -15 12 -12 3 3 0 11 -7 18 -10 9 -11 8 -5 -6z"/>
<path d="M2674 2409 c-3 -6 -2 -15 3 -20 5 -5 9 -1 9 11 0 23 -2 24 -12 9z"/>
<path d="M2815 2380 c3 -5 8 -10 11 -10 2 0 4 5 4 10 0 6 -5 10 -11 10 -5 0
-7 -4 -4 -10z"/>
<path d="M2310 2376 c0 -2 8 -10 18 -17 15 -13 16 -12 3 4 -13 16 -21 21 -21
13z"/>
<path d="M2950 2366 c0 -2 7 -7 16 -10 8 -3 12 -2 9 4 -6 10 -25 14 -25 6z"/>
<path d="M2735 2340 c-3 -5 -1 -10 4 -10 6 0 11 5 11 10 0 6 -2 10 -4 10 -3 0
-8 -4 -11 -10z"/>
<path d="M2677 2333 c-10 -9 -9 -23 1 -23 5 0 9 7 9 15 0 17 -1 18 -10 8z"/>
<path d="M2820 2326 c0 -2 8 -10 18 -17 15 -13 16 -12 3 4 -13 16 -21 21 -21
13z"/>
<path d="M2479 2273 c-13 -16 -12 -17 4 -4 9 7 17 15 17 17 0 8 -8 3 -21 -13z"/>
<path d="M2540 2286 c0 -2 8 -10 18 -17 15 -13 16 -12 3 4 -13 16 -21 21 -21
13z"/>
<path d="M2794 2246 c1 -8 5 -18 8 -22 4 -3 5 1 4 10 -1 8 -5 18 -8 22 -4 3
-5 -1 -4 -10z"/>
<path d="M2829 2243 c-13 -16 -12 -17 4 -4 16 13 21 21 13 21 -2 0 -10 -8 -17
-17z"/>
<path d="M2915 2249 c-4 -6 -5 -12 -2 -15 2 -3 7 2 10 11 7 17 1 20 -8 4z"/>
<path d="M2759 2233 c-13 -16 -12 -17 4 -4 16 13 21 21 13 21 -2 0 -10 -8 -17
-17z"/>
<path d="M2433 2225 c0 -8 4 -12 9 -9 5 3 6 10 3 15 -9 13 -12 11 -12 -6z"/>
<path d="M2650 2220 c0 -5 5 -10 11 -10 5 0 7 5 4 10 -3 6 -8 10 -11 10 -2 0
-4 -4 -4 -10z"/>
<path d="M2495 2180 c-3 -5 -1 -10 4 -10 6 0 11 5 11 10 0 6 -2 10 -4 10 -3 0
-8 -4 -11 -10z"/>
<path d="M2750 2176 c0 -2 8 -10 18 -17 15 -13 16 -12 3 4 -13 16 -21 21 -21
13z"/>
<path d="M2855 2140 c3 -5 8 -10 11 -10 2 0 4 5 4 10 0 6 -5 10 -11 10 -5 0
-7 -4 -4 -10z"/>
<path d="M2595 2120 c3 -5 8 -10 11 -10 2 0 4 5 4 10 0 6 -5 10 -11 10 -5 0
-7 -4 -4 -10z"/>
<path d="M2630 2120 c0 -5 5 -10 11 -10 5 0 7 5 4 10 -3 6 -8 10 -11 10 -2 0
-4 -4 -4 -10z"/>
<path d="M2890 2099 c0 -5 5 -7 10 -4 6 3 10 8 10 11 0 2 -4 4 -10 4 -5 0 -10
-5 -10 -11z"/>
<path d="M2735 2060 c3 -5 8 -10 11 -10 2 0 4 5 4 10 0 6 -5 10 -11 10 -5 0
-7 -4 -4 -10z"/>
<path d="M2980 2059 c0 -5 5 -7 10 -4 6 3 10 8 10 11 0 2 -4 4 -10 4 -5 0 -10
-5 -10 -11z"/>
<path d="M2796 2033 c-6 -14 -5 -15 5 -6 7 7 10 15 7 18 -3 3 -9 -2 -12 -12z"/>
<path d="M1955 2071 c-3 -5 -2 -12 3 -15 5 -3 9 1 9 9 0 17 -3 19 -12 6z"/>
<path d="M4065 1969 c-11 -16 -1 -19 13 -3 7 8 8 14 3 14 -5 0 -13 -5 -16 -11z"/>
<path d="M1100 1329 c0 -5 5 -7 10 -4 6 3 10 8 10 11 0 2 -4 4 -10 4 -5 0 -10
-5 -10 -11z"/>
<path d="M1595 1100 c-3 -5 -1 -10 4 -10 6 0 11 5 11 10 0 6 -2 10 -4 10 -3 0
-8 -4 -11 -10z"/>
</g>
</svg>
